<svg width="15" height="15" viewBox="0 0 15 15" fill="none" xmlns="http://www.w3.org/2000/svg">
<path d="M11.5156 6.125C11.6445 6.125 11.75 6.01953 11.75 5.89062V5.10938C11.75 4.98047 11.6445 4.875 11.5156 4.875H11.125V3.9375C11.125 3.41992 10.7051 3 10.1875 3H3.9375C3.41992 3 3 3.41992 3 3.9375V12.0625C3 12.5801 3.41992 13 3.9375 13H10.1875C10.7051 13 11.125 12.5801 11.125 12.0625V11.125H11.5156C11.6445 11.125 11.75 11.0195 11.75 10.8906V10.1094C11.75 9.98047 11.6445 9.875 11.5156 9.875H11.125V8.625H11.5156C11.6445 8.625 11.75 8.51953 11.75 8.39062V7.60938C11.75 7.48047 11.6445 7.375 11.5156 7.375H11.125V6.125H11.5156ZM7.0625 5.5C7.75195 5.5 8.3125 6.06055 8.3125 6.75C8.3125 7.43945 7.75195 8 7.0625 8C6.37305 8 5.8125 7.43945 5.8125 6.75C5.8125 6.06055 6.37305 5.5 7.0625 5.5ZM9.25 10.125C9.25 10.332 9.05469 10.5 8.8125 10.5H5.3125C5.07031 10.5 4.875 10.332 4.875 10.125V9.75C4.875 9.12891 5.46289 8.625 6.1875 8.625H6.28516C6.52539 8.72461 6.78711 8.78125 7.0625 8.78125C7.33789 8.78125 7.60156 8.72461 7.83984 8.625H7.9375C8.66211 8.625 9.25 9.12891 9.25 9.75V10.125Z" fill="#791982"/>
</svg>
