<svg width="15" height="15" viewBox="0 0 15 15" fill="none" xmlns="http://www.w3.org/2000/svg">
<path d="M3.71429 2C2.76875 2 2 2.75674 2 3.6875V12.125C2 13.0558 2.76875 13.8125 3.71429 13.8125H12.2857C13.2313 13.8125 14 13.0558 14 12.125V3.6875C14 2.75674 13.2313 2 12.2857 2H3.71429ZM11.0268 6.66699L7.59821 10.042C7.34643 10.2898 6.93929 10.2898 6.69018 10.042L4.97589 8.35449C4.72411 8.10664 4.72411 7.70586 4.97589 7.46064C5.22768 7.21543 5.63482 7.21279 5.88393 7.46064L7.14286 8.6999L10.1161 5.77051C10.3679 5.52266 10.775 5.52266 11.0241 5.77051C11.2732 6.01836 11.2759 6.41914 11.0241 6.66436L11.0268 6.66699Z" fill="white"/>
</svg>
