<svg width="18" height="15" viewBox="0 0 18 15" fill="none" xmlns="http://www.w3.org/2000/svg">
<path d="M2 0.99762C0.896875 0.99762 0 1.89238 0 2.9929V12.9693C0 14.0698 0.896875 14.9646 2 14.9646H16C17.1031 14.9646 18 14.0698 18 12.9693V2.9929C18 1.89238 17.1031 0.99762 16 0.99762H2ZM4.5 8.97875H6.5C7.88125 8.97875 9 10.0949 9 11.4729C9 11.7472 8.775 11.9717 8.5 11.9717H2.5C2.225 11.9717 2 11.7472 2 11.4729C2 10.0949 3.11875 8.97875 4.5 8.97875ZM7.5 5.98583C7.5 7.08635 6.60313 7.98111 5.5 7.98111C4.39687 7.98111 3.5 7.08635 3.5 5.98583C3.5 4.8853 4.39687 3.99054 5.5 3.99054C6.60313 3.99054 7.5 4.8853 7.5 5.98583ZM11.5 4.98819H15.5C15.775 4.98819 16 5.21266 16 5.48701C16 5.76136 15.775 5.98583 15.5 5.98583H11.5C11.225 5.98583 11 5.76136 11 5.48701C11 5.21266 11.225 4.98819 11.5 4.98819ZM11.5 6.98347H15.5C15.775 6.98347 16 7.20794 16 7.48229C16 7.75664 15.775 7.98111 15.5 7.98111H11.5C11.225 7.98111 11 7.75664 11 7.48229C11 7.20794 11.225 6.98347 11.5 6.98347ZM11.5 8.97875H15.5C15.775 8.97875 16 9.20322 16 9.47757C16 9.75192 15.775 9.97639 15.5 9.97639H11.5C11.225 9.97639 11 9.75192 11 9.47757C11 9.20322 11.225 8.97875 11.5 8.97875Z" fill="#791982"/>
</svg>
