<svg width="15" height="15" viewBox="0 0 15 15" fill="none" xmlns="http://www.w3.org/2000/svg">
<g clip-path="url(#clip0_241_1302)">
<path d="M4.25 2C3.42266 2 2.75 2.67266 2.75 3.5V12.5C2.75 13.3273 3.42266 14 4.25 14H11C11.8273 14 12.5 13.3273 12.5 12.5V3.5C12.5 2.67266 11.8273 2 11 2H4.25ZM6.875 8.75H8.375C9.41094 8.75 10.25 9.58906 10.25 10.625C10.25 10.8313 10.0813 11 9.875 11H5.375C5.16875 11 5 10.8313 5 10.625C5 9.58906 5.83906 8.75 6.875 8.75ZM9.125 6.5C9.125 7.32734 8.45234 8 7.625 8C6.79766 8 6.125 7.32734 6.125 6.5C6.125 5.67266 6.79766 5 7.625 5C8.45234 5 9.125 5.67266 9.125 6.5ZM14 3.875C14 3.66875 13.8313 3.5 13.625 3.5C13.4187 3.5 13.25 3.66875 13.25 3.875V5.375C13.25 5.58125 13.4187 5.75 13.625 5.75C13.8313 5.75 14 5.58125 14 5.375V3.875ZM13.625 6.5C13.4187 6.5 13.25 6.66875 13.25 6.875V8.375C13.25 8.58125 13.4187 8.75 13.625 8.75C13.8313 8.75 14 8.58125 14 8.375V6.875C14 6.66875 13.8313 6.5 13.625 6.5ZM14 9.875C14 9.66875 13.8313 9.5 13.625 9.5C13.4187 9.5 13.25 9.66875 13.25 9.875V11.375C13.25 11.5813 13.4187 11.75 13.625 11.75C13.8313 11.75 14 11.5813 14 11.375V9.875Z" fill="#787D86"/>
</g>
<defs>
<clipPath id="clip0_241_1302">
<rect width="12" height="12" fill="white" transform="translate(2 2)"/>
</clipPath>
</defs>
</svg>
