<svg width="15" height="15" viewBox="0 0 15 15" fill="none" xmlns="http://www.w3.org/2000/svg">
<g clip-path="url(#clip0_256_1338)">
<path d="M3.1044 3.79289C3.16065 3.67801 3.2844 3.61209 3.41003 3.62904L8.00003 4.20535L12.59 3.62904C12.7157 3.61397 12.8394 3.67989 12.8957 3.79289L13.6775 5.36363C13.8463 5.70075 13.6663 6.10944 13.3063 6.21303L10.2425 7.09256C9.9819 7.16789 9.70253 7.05678 9.56378 6.82324L8.00003 4.20535L6.43628 6.82324C6.29753 7.05678 6.01815 7.16789 5.75753 7.09256L2.69565 6.21303C2.33378 6.10944 2.15565 5.70075 2.3244 5.36363L3.1044 3.79289ZM8.02065 5.41071L9.05003 7.13211C9.3294 7.59919 9.88628 7.82142 10.4094 7.67075L12.8 6.98521V10.1304C12.8 10.5448 12.5188 10.9064 12.1175 11.0081L8.29065 11.9686C8.0994 12.0176 7.89878 12.0176 7.7094 11.9686L3.88253 11.0081C3.48128 10.9045 3.20003 10.5429 3.20003 10.1286V6.98332L5.59253 7.67075C6.11378 7.82142 6.67253 7.59919 6.9519 7.13211L7.9794 5.41071H8.02065V5.41071Z" fill="white"/>
</g>
<defs>
<clipPath id="clip0_256_1338">
<rect width="12" height="9.64286" fill="white" transform="translate(2 3)"/>
</clipPath>
</defs>
</svg>
