<svg width="15" height="15" viewBox="0 0 15 15" fill="none" xmlns="http://www.w3.org/2000/svg">
<path d="M2.9 3C2.40313 3 2 3.40231 2 3.89819V9.88609C2 10.382 2.40313 10.7843 2.9 10.7843H3.2C3.2 11.776 4.00625 12.5806 5 12.5806C5.99375 12.5806 6.8 11.776 6.8 10.7843H9.2C9.2 11.776 10.0063 12.5806 11 12.5806C11.9938 12.5806 12.8 11.776 12.8 10.7843H13.4C13.7319 10.7843 14 10.5167 14 10.1855C14 9.85428 13.7319 9.58669 13.4 9.58669V8.38911V7.79032V7.4404C13.4 7.1223 13.2744 6.81729 13.0494 6.59274L11.6 5.14629C11.375 4.92174 11.0694 4.79637 10.7506 4.79637H9.8V3.89819C9.8 3.40231 9.39688 3 8.9 3H2.9ZM9.8 5.99395H10.7506L12.2 7.4404V7.79032H9.8V5.99395ZM5.9 10.7843C5.9 11.2801 5.49688 11.6825 5 11.6825C4.50313 11.6825 4.1 11.2801 4.1 10.7843C4.1 10.2884 4.50313 9.88609 5 9.88609C5.49688 9.88609 5.9 10.2884 5.9 10.7843ZM11 11.6825C10.5031 11.6825 10.1 11.2801 10.1 10.7843C10.1 10.2884 10.5031 9.88609 11 9.88609C11.4969 9.88609 11.9 10.2884 11.9 10.7843C11.9 11.2801 11.4969 11.6825 11 11.6825Z" fill="white"/>
</svg>
