<svg width="15" height="15" viewBox="0 0 15 15" fill="none" xmlns="http://www.w3.org/2000/svg">
<path d="M13.7063 3.70826C14.0969 3.31771 14.0969 2.68346 13.7063 2.29291C13.3158 1.90236 12.6815 1.90236 12.291 2.29291L2.29291 12.291C1.90236 12.6815 1.90236 13.3158 2.29291 13.7063C2.68346 14.0969 3.31771 14.0969 3.70826 13.7063L13.7063 3.70826V3.70826ZM6.00156 4.00195C6.00156 2.89904 5.10486 2.00234 4.00195 2.00234C2.89904 2.00234 2.00234 2.89904 2.00234 4.00195C2.00234 5.10486 2.89904 6.00156 4.00195 6.00156C5.10486 6.00156 6.00156 5.10486 6.00156 4.00195ZM14 12.0004C14 10.8975 13.1033 10.0008 12.0004 10.0008C10.8975 10.0008 10.0008 10.8975 10.0008 12.0004C10.0008 13.1033 10.8975 14 12.0004 14C13.1033 14 14 13.1033 14 12.0004Z" fill="#787D86"/>
</svg>
