<svg width="15" height="15" viewBox="0 0 15 15" fill="none" xmlns="http://www.w3.org/2000/svg">
<path d="M12.9412 10.7059H12.1176V3.05882C12.1176 2.47506 11.6426 2 11.0588 2H3.05882C2.47506 2 2 2.47506 2 3.05882C2 3.64259 2.47506 4.11765 3.05882 4.11765H3.88235V11.7647C3.88235 12.3485 4.35741 12.8235 4.94118 12.8235H12.9412C13.5249 12.8235 14 12.3485 14 11.7647C14 11.1809 13.5249 10.7059 12.9412 10.7059ZM3.05882 3.88235C2.60471 3.88235 2.23529 3.51294 2.23529 3.05882C2.23529 2.60471 2.60471 2.23529 3.05882 2.23529C3.47247 2.23529 3.81271 2.54306 3.87035 2.94118H3.05882C3.02762 2.94118 2.9977 2.95357 2.97563 2.97563C2.95357 2.9977 2.94118 3.02762 2.94118 3.05882C2.94118 3.09003 2.95357 3.11995 2.97563 3.14201C2.9977 3.16408 3.02762 3.17647 3.05882 3.17647C3.25341 3.17647 3.41176 3.33482 3.41176 3.52941C3.41176 3.724 3.25341 3.88235 3.05882 3.88235ZM3.88235 3.33835V3.88235H3.52635C3.60094 3.78376 3.64706 3.66235 3.64706 3.52941C3.64706 3.39647 3.60118 3.27506 3.52635 3.17647H3.88235V3.33835ZM9.044 3.29412C9.044 3.26292 9.05639 3.23299 9.07846 3.21093C9.10052 3.18887 9.13045 3.17647 9.16165 3.17647H10.1028C10.134 3.17647 10.1639 3.18887 10.186 3.21093C10.2081 3.23299 10.2205 3.26292 10.2205 3.29412V3.52941C10.2205 3.56061 10.2081 3.59054 10.186 3.6126C10.1639 3.63466 10.134 3.64706 10.1028 3.64706C10.0716 3.64706 10.0417 3.63466 10.0196 3.6126C9.99757 3.59054 9.98518 3.56061 9.98518 3.52941V3.41176H9.74988V4.70588C9.74988 4.73708 9.73749 4.76701 9.71542 4.78907C9.69336 4.81113 9.66344 4.82353 9.63224 4.82353C9.60103 4.82353 9.57111 4.81113 9.54905 4.78907C9.52698 4.76701 9.51459 4.73708 9.51459 4.70588V3.41176H9.27929V3.52941C9.27929 3.56061 9.2669 3.59054 9.24484 3.6126C9.22277 3.63466 9.19285 3.64706 9.16165 3.64706C9.13045 3.64706 9.10052 3.63466 9.07846 3.6126C9.05639 3.59054 9.044 3.56061 9.044 3.52941V3.29412ZM7.39694 4.47059C7.39694 4.43939 7.40934 4.40946 7.4314 4.3874C7.45346 4.36534 7.48339 4.35294 7.51459 4.35294C7.54579 4.35294 7.57571 4.36534 7.59778 4.3874C7.61984 4.40946 7.63224 4.43939 7.63224 4.47059V4.58824H8.33812V4.11765H7.51459C7.48339 4.11765 7.45346 4.10525 7.4314 4.08319C7.40934 4.06113 7.39694 4.0312 7.39694 4V3.29412C7.39694 3.26292 7.40934 3.23299 7.4314 3.21093C7.45346 3.18887 7.48339 3.17647 7.51459 3.17647H8.45576C8.48697 3.17647 8.51689 3.18887 8.53895 3.21093C8.56102 3.23299 8.57341 3.26292 8.57341 3.29412V3.52941C8.57341 3.56061 8.56102 3.59054 8.53895 3.6126C8.51689 3.63466 8.48697 3.64706 8.45576 3.64706C8.42456 3.64706 8.39464 3.63466 8.37258 3.6126C8.35051 3.59054 8.33812 3.56061 8.33812 3.52941V3.41176H7.63224V3.88235H8.45576C8.48697 3.88235 8.51689 3.89475 8.53895 3.91681C8.56102 3.93887 8.57341 3.9688 8.57341 4V4.70588C8.57341 4.73708 8.56102 4.76701 8.53895 4.78907C8.51689 4.81113 8.48697 4.82353 8.45576 4.82353H7.51459C7.48339 4.82353 7.45346 4.81113 7.4314 4.78907C7.40934 4.76701 7.39694 4.73708 7.39694 4.70588V4.47059ZM5.74988 4.47059V3.29412C5.74988 3.26292 5.76228 3.23299 5.78434 3.21093C5.8064 3.18887 5.83633 3.17647 5.86753 3.17647H6.80871C6.83991 3.17647 6.86983 3.18887 6.8919 3.21093C6.91396 3.23299 6.92635 3.26292 6.92635 3.29412V3.52941C6.92635 3.56061 6.91396 3.59054 6.8919 3.6126C6.86983 3.63466 6.83991 3.64706 6.80871 3.64706C6.7775 3.64706 6.74758 3.63466 6.72552 3.6126C6.70345 3.59054 6.69106 3.56061 6.69106 3.52941V3.41176H5.98518V4.58824H6.69106V4.11765H6.33812C6.30692 4.11765 6.27699 4.10525 6.25493 4.08319C6.23287 4.06113 6.22047 4.0312 6.22047 4C6.22047 3.9688 6.23287 3.93887 6.25493 3.91681C6.27699 3.89475 6.30692 3.88235 6.33812 3.88235H6.80871C6.83991 3.88235 6.86983 3.89475 6.8919 3.91681C6.91396 3.93887 6.92635 3.9688 6.92635 4V4.70588C6.92635 4.73708 6.91396 4.76701 6.8919 4.78907C6.86983 4.81113 6.83991 4.82353 6.80871 4.82353H5.86753C5.83633 4.82353 5.8064 4.81113 5.78434 4.78907C5.76228 4.76701 5.74988 4.73708 5.74988 4.70588V4.47059ZM5.86753 5.29412H10.1028C10.134 5.29412 10.1639 5.30651 10.186 5.32858C10.2081 5.35064 10.2205 5.38056 10.2205 5.41176C10.2205 5.44297 10.2081 5.47289 10.186 5.49495C10.1639 5.51702 10.134 5.52941 10.1028 5.52941H5.86753C5.83633 5.52941 5.8064 5.51702 5.78434 5.49495C5.76228 5.47289 5.74988 5.44297 5.74988 5.41176C5.74988 5.38056 5.76228 5.35064 5.78434 5.32858C5.8064 5.30651 5.83633 5.29412 5.86753 5.29412ZM4.69106 6.47059H11.2793C11.3105 6.47059 11.3404 6.48298 11.3625 6.50505C11.3845 6.52711 11.3969 6.55703 11.3969 6.58824C11.3969 6.61944 11.3845 6.64936 11.3625 6.67142C11.3404 6.69349 11.3105 6.70588 11.2793 6.70588H4.69106C4.65986 6.70588 4.62993 6.69349 4.60787 6.67142C4.58581 6.64936 4.57341 6.61944 4.57341 6.58824C4.57341 6.55703 4.58581 6.52711 4.60787 6.50505C4.62993 6.48298 4.65986 6.47059 4.69106 6.47059ZM4.69106 7.17647H11.2793C11.3105 7.17647 11.3404 7.18887 11.3625 7.21093C11.3845 7.23299 11.3969 7.26292 11.3969 7.29412C11.3969 7.32532 11.3845 7.35524 11.3625 7.37731C11.3404 7.39937 11.3105 7.41176 11.2793 7.41176H4.69106C4.65986 7.41176 4.62993 7.39937 4.60787 7.37731C4.58581 7.35524 4.57341 7.32532 4.57341 7.29412C4.57341 7.26292 4.58581 7.23299 4.60787 7.21093C4.62993 7.18887 4.65986 7.17647 4.69106 7.17647ZM4.69106 7.88235H11.2793C11.3105 7.88235 11.3404 7.89475 11.3625 7.91681C11.3845 7.93887 11.3969 7.9688 11.3969 8C11.3969 8.0312 11.3845 8.06113 11.3625 8.08319C11.3404 8.10525 11.3105 8.11765 11.2793 8.11765H4.69106C4.65986 8.11765 4.62993 8.10525 4.60787 8.08319C4.58581 8.06113 4.57341 8.0312 4.57341 8C4.57341 7.9688 4.58581 7.93887 4.60787 7.91681C4.62993 7.89475 4.65986 7.88235 4.69106 7.88235ZM4.69106 8.58824H11.2793C11.3105 8.58824 11.3404 8.60063 11.3625 8.62269C11.3845 8.64476 11.3969 8.67468 11.3969 8.70588C11.3969 8.73708 11.3845 8.76701 11.3625 8.78907C11.3404 8.81113 11.3105 8.82353 11.2793 8.82353H4.69106C4.65986 8.82353 4.62993 8.81113 4.60787 8.78907C4.58581 8.76701 4.57341 8.73708 4.57341 8.70588C4.57341 8.67468 4.58581 8.64476 4.60787 8.62269C4.62993 8.60063 4.65986 8.58824 4.69106 8.58824ZM4.69106 9.29412H11.2793C11.3105 9.29412 11.3404 9.30651 11.3625 9.32858C11.3845 9.35064 11.3969 9.38056 11.3969 9.41176C11.3969 9.44297 11.3845 9.47289 11.3625 9.49495C11.3404 9.51702 11.3105 9.52941 11.2793 9.52941H4.69106C4.65986 9.52941 4.62993 9.51702 4.60787 9.49495C4.58581 9.47289 4.57341 9.44297 4.57341 9.41176C4.57341 9.38056 4.58581 9.35064 4.60787 9.32858C4.62993 9.30651 4.65986 9.29412 4.69106 9.29412ZM4.69106 10H11.2793C11.3105 10 11.3404 10.0124 11.3625 10.0345C11.3845 10.0565 11.3969 10.0864 11.3969 10.1176C11.3969 10.1488 11.3845 10.1788 11.3625 10.2008C11.3404 10.2229 11.3105 10.2353 11.2793 10.2353H4.69106C4.65986 10.2353 4.62993 10.2229 4.60787 10.2008C4.58581 10.1788 4.57341 10.1488 4.57341 10.1176C4.57341 10.0864 4.58581 10.0565 4.60787 10.0345C4.62993 10.0124 4.65986 10 4.69106 10ZM4.69106 11.6471C4.65986 11.6471 4.62993 11.6347 4.60787 11.6126C4.58581 11.5905 4.57341 11.5606 4.57341 11.5294C4.57341 11.4982 4.58581 11.4683 4.60787 11.4462C4.62993 11.4242 4.65986 11.4118 4.69106 11.4118H5.68235C5.71741 11.4849 5.74071 11.5638 5.75271 11.6471H4.69106ZM12.9412 12.5882H5.59859C5.65482 12.5433 5.70565 12.4932 5.75153 12.4379L5.77176 12.4134C5.83589 12.3323 5.88788 12.2422 5.92612 12.1461C5.94588 12.0962 5.96212 12.0449 5.97412 11.9918C5.97671 11.9795 5.97859 11.9671 5.98071 11.9546C5.99224 11.8929 6 11.8299 6 11.7647C6 11.6995 5.99224 11.6367 5.98071 11.5748C5.97835 11.5624 5.97671 11.5499 5.97412 11.5376C5.94931 11.4274 5.90654 11.322 5.84753 11.2256C5.78213 11.1168 5.69783 11.0204 5.59859 10.9412H12.9412C13.3953 10.9412 13.7647 11.3106 13.7647 11.7647C13.7647 12.2188 13.3953 12.5882 12.9412 12.5882Z" fill="#787D86"/>
</svg>
