<svg width="13" height="17" viewBox="0 0 13 17" fill="none" xmlns="http://www.w3.org/2000/svg">
<path d="M6.5 0C5.0849 0 3.87969 0.886523 3.4362 2.125H2.16667C0.971615 2.125 0 3.07793 0 4.25V14.875C0 16.0471 0.971615 17 2.16667 17H10.8333C12.0284 17 13 16.0471 13 14.875V4.25C13 3.07793 12.0284 2.125 10.8333 2.125H9.5638C9.12031 0.886523 7.9151 0 6.5 0ZM6.5 2.125C6.78732 2.125 7.06287 2.23694 7.26603 2.4362C7.4692 2.63546 7.58333 2.90571 7.58333 3.1875C7.58333 3.46929 7.4692 3.73954 7.26603 3.9388C7.06287 4.13806 6.78732 4.25 6.5 4.25C6.21268 4.25 5.93713 4.13806 5.73397 3.9388C5.5308 3.73954 5.41667 3.46929 5.41667 3.1875C5.41667 2.90571 5.5308 2.63546 5.73397 2.4362C5.93713 2.23694 6.21268 2.125 6.5 2.125ZM2.4375 9.03125C2.4375 8.81991 2.5231 8.61722 2.67548 8.46777C2.82785 8.31833 3.03451 8.23438 3.25 8.23438C3.46549 8.23438 3.67215 8.31833 3.82452 8.46777C3.9769 8.61722 4.0625 8.81991 4.0625 9.03125C4.0625 9.24259 3.9769 9.44528 3.82452 9.59473C3.67215 9.74417 3.46549 9.82812 3.25 9.82812C3.03451 9.82812 2.82785 9.74417 2.67548 9.59473C2.5231 9.44528 2.4375 9.24259 2.4375 9.03125ZM5.95833 8.5H10.2917C10.5896 8.5 10.8333 8.73906 10.8333 9.03125C10.8333 9.32344 10.5896 9.5625 10.2917 9.5625H5.95833C5.66042 9.5625 5.41667 9.32344 5.41667 9.03125C5.41667 8.73906 5.66042 8.5 5.95833 8.5ZM2.4375 12.2188C2.4375 12.0074 2.5231 11.8047 2.67548 11.6553C2.82785 11.5058 3.03451 11.4219 3.25 11.4219C3.46549 11.4219 3.67215 11.5058 3.82452 11.6553C3.9769 11.8047 4.0625 12.0074 4.0625 12.2188C4.0625 12.4301 3.9769 12.6328 3.82452 12.7822C3.67215 12.9317 3.46549 13.0156 3.25 13.0156C3.03451 13.0156 2.82785 12.9317 2.67548 12.7822C2.5231 12.6328 2.4375 12.4301 2.4375 12.2188ZM5.41667 12.2188C5.41667 11.9266 5.66042 11.6875 5.95833 11.6875H10.2917C10.5896 11.6875 10.8333 11.9266 10.8333 12.2188C10.8333 12.5109 10.5896 12.75 10.2917 12.75H5.95833C5.66042 12.75 5.41667 12.5109 5.41667 12.2188Z" fill="#791982"/>
</svg>
