<svg width="15" height="15" viewBox="0 0 15 15" fill="none" xmlns="http://www.w3.org/2000/svg">
<path d="M5.56567 2.14492C5.79768 2.35349 5.81642 2.70736 5.60785 2.93937L3.92052 4.81419C3.8174 4.92902 3.6721 4.99698 3.51743 4.99932C3.36276 5.00167 3.21512 4.94308 3.10497 4.83528L2.16522 3.89787C1.94493 3.67758 1.94493 3.32136 2.16522 3.10342C2.38551 2.88547 2.74172 2.88313 2.95967 3.10342L3.47759 3.62133L4.76887 2.1871C4.97744 1.95509 5.33132 1.93634 5.56332 2.14492H5.56567ZM5.56567 5.89455C5.79768 6.10312 5.81642 6.45699 5.60785 6.689L3.92052 8.56382C3.8174 8.67865 3.6721 8.74661 3.51743 8.74896C3.36276 8.7513 3.21512 8.69271 3.10497 8.58491L2.16522 7.6475C1.94493 7.42721 1.94493 7.071 2.16522 6.85305C2.38551 6.6351 2.74172 6.63276 2.95967 6.85305L3.47759 7.37097L4.76887 5.93673C4.97744 5.70472 5.33132 5.68598 5.56332 5.89455H5.56567ZM7.25066 3.49947C7.25066 3.08467 7.58578 2.74954 8.00059 2.74954H13.2501C13.6649 2.74954 14 3.08467 14 3.49947C14 3.91427 13.6649 4.2494 13.2501 4.2494H8.00059C7.58578 4.2494 7.25066 3.91427 7.25066 3.49947ZM7.25066 7.2491C7.25066 6.8343 7.58578 6.49918 8.00059 6.49918H13.2501C13.6649 6.49918 14 6.8343 14 7.2491C14 7.66391 13.6649 7.99903 13.2501 7.99903H8.00059C7.58578 7.99903 7.25066 7.66391 7.25066 7.2491ZM5.75081 10.9987C5.75081 10.5839 6.08593 10.2488 6.50073 10.2488H13.2501C13.6649 10.2488 14 10.5839 14 10.9987C14 11.4135 13.6649 11.7487 13.2501 11.7487H6.50073C6.08593 11.7487 5.75081 11.4135 5.75081 10.9987ZM3.12606 12.1236C2.50503 12.1236 2.00117 11.6198 2.00117 10.9987C2.00117 10.3777 2.50503 9.87385 3.12606 9.87385C3.7471 9.87385 4.25095 10.3777 4.25095 10.9987C4.25095 11.6198 3.7471 12.1236 3.12606 12.1236Z" fill="#787D86"/>
</svg>
