<svg width="15" height="15" viewBox="0 0 15 15" fill="none" xmlns="http://www.w3.org/2000/svg">
<path d="M7.98125 1.00043C7.91407 1.00363 7.84878 1.0237 7.79141 1.0588C7.73405 1.09391 7.68646 1.1429 7.65303 1.20126L6.83172 2.63992L5.39932 1.80376C5.33828 1.76798 5.26886 1.74902 5.19811 1.74882C5.12736 1.74861 5.05782 1.76717 4.99658 1.80259C4.93534 1.83802 4.88459 1.88905 4.8495 1.95048C4.8144 2.01191 4.79623 2.08155 4.79681 2.15229L4.80619 3.80663L3.14873 3.80038C3.07824 3.80035 3.009 3.81893 2.94801 3.85425C2.88702 3.88957 2.83644 3.94037 2.80138 4.00152C2.76633 4.06266 2.74805 4.13198 2.74839 4.20246C2.74873 4.27294 2.76768 4.34208 2.80332 4.40288L3.63635 5.83217L2.20082 6.65348C2.13979 6.68854 2.08908 6.73908 2.05383 6.8C2.01857 6.86091 2 6.93006 2 7.00044C2 7.07083 2.01857 7.13997 2.05383 7.20089C2.08908 7.26181 2.13979 7.31235 2.20082 7.34741L3.63635 8.16872L2.80332 9.598C2.76768 9.6588 2.74873 9.72794 2.74839 9.79842C2.74805 9.8689 2.76633 9.93822 2.80138 9.99937C2.83644 10.0605 2.88702 10.1113 2.94801 10.1466C3.009 10.182 3.07824 10.2005 3.14873 10.2005L4.80619 10.195L4.79681 11.8486C4.79623 11.9193 4.8144 11.989 4.8495 12.0504C4.88459 12.1118 4.93534 12.1629 4.99658 12.1983C5.05782 12.2337 5.12736 12.2523 5.19811 12.2521C5.26886 12.2519 5.33828 12.2329 5.39932 12.1971L6.83172 11.3641L7.65303 12.7996C7.68809 12.8607 7.73864 12.9114 7.79955 12.9466C7.86047 12.9819 7.92961 13.0004 8 13.0004C8.07039 13.0004 8.13953 12.9819 8.20045 12.9466C8.26136 12.9114 8.3119 12.8607 8.34697 12.7996L9.16515 11.3617L10.5976 12.1971C10.6584 12.2328 10.7275 12.2517 10.798 12.2521C10.8685 12.2524 10.9378 12.2341 10.9989 12.1991C11.0601 12.164 11.1109 12.1134 11.1462 12.0524C11.1815 11.9914 11.2001 11.9222 11.2001 11.8517L11.1946 10.195L12.8481 10.2005C12.9184 10.2008 12.9876 10.1825 13.0485 10.1476C13.1095 10.1126 13.1602 10.0623 13.1956 10.0015C13.2309 9.94074 13.2496 9.87175 13.2498 9.80146C13.25 9.73118 13.2317 9.66208 13.1967 9.60112L12.3636 8.16872L13.7992 7.34741C13.8602 7.31235 13.9109 7.26181 13.9462 7.20089C13.9814 7.13997 14 7.07083 14 7.00044C14 6.93006 13.9814 6.86091 13.9462 6.8C13.9109 6.73908 13.8602 6.68854 13.7992 6.65348L12.3636 5.83217L13.1967 4.39976C13.2317 4.3388 13.25 4.26971 13.2498 4.19942C13.2496 4.12914 13.2309 4.06014 13.1956 3.99938C13.1602 3.93862 13.1095 3.88824 13.0485 3.8533C12.9876 3.81837 12.9184 3.80012 12.8481 3.80038L11.1946 3.80663L11.2001 2.15229C11.2006 2.08155 11.1825 2.01191 11.1474 1.95048C11.1123 1.88905 11.0615 1.83802 11.0003 1.8026C10.9391 1.76717 10.8695 1.74861 10.7988 1.74882C10.728 1.74902 10.6586 1.76798 10.5976 1.80376L9.16828 2.6368L8.34697 1.20126C8.31038 1.13738 8.25688 1.08484 8.19235 1.04941C8.12783 1.01397 8.05478 0.997024 7.98125 1.00043V1.00043ZM6.79968 4.19892C7.45786 4.19892 7.99844 4.74341 7.99844 5.40158C7.99844 6.05976 7.45786 6.60034 6.79968 6.60034C6.14151 6.60034 5.60015 6.05976 5.60015 5.40158C5.60015 4.74341 6.14151 4.19892 6.79968 4.19892ZM9.99193 4.59512C10.0729 4.59207 10.1529 4.61367 10.2213 4.65706C10.2897 4.70045 10.3433 4.76358 10.3751 4.83812C10.4069 4.91265 10.4153 4.99507 10.3992 5.07447C10.3831 5.15387 10.3433 5.22652 10.285 5.2828L6.28236 9.28542C6.24541 9.32395 6.20113 9.35471 6.15213 9.3759C6.10313 9.3971 6.05039 9.40829 5.99701 9.40883C5.94363 9.40937 5.89067 9.39925 5.84125 9.37905C5.79183 9.35885 5.74695 9.32899 5.70922 9.29121C5.6715 9.25344 5.6417 9.20851 5.62157 9.15906C5.60144 9.10961 5.59138 9.05664 5.592 9.00326C5.59261 8.94988 5.60388 8.89715 5.62514 8.84818C5.6464 8.79921 5.67722 8.75498 5.71581 8.71808L9.71764 4.71625C9.78991 4.64185 9.88826 4.59842 9.99193 4.59512V4.59512ZM9.2011 7.40055C9.85927 7.40055 10.3998 7.9419 10.3998 8.60008C10.3998 9.25826 9.85927 9.80196 9.2011 9.80196C8.54292 9.80196 7.99844 9.25826 7.99844 8.60008C7.99844 7.9419 8.54292 7.40055 9.2011 7.40055Z" fill="#787D86"/>
</svg>
