<svg width="15" height="15" viewBox="0 0 15 15" fill="none" xmlns="http://www.w3.org/2000/svg">
<path d="M15 2.1875C15 1.01543 14.0391 0.0625 12.8571 0.0625H2.14286C0.960938 0.0625 0 1.01543 0 2.1875V12.8125C0 13.9846 0.960938 14.9375 2.14286 14.9375H12.8571C14.0391 14.9375 15 13.9846 15 12.8125V2.1875ZM8.57143 4.3125C8.57143 4.9002 8.09263 5.375 7.5 5.375H4.28571C3.69308 5.375 3.21429 4.9002 3.21429 4.3125C3.21429 3.7248 3.69308 3.25 4.28571 3.25H7.5C8.09263 3.25 8.57143 3.7248 8.57143 4.3125ZM10.7143 6.4375C11.3069 6.4375 11.7857 6.9123 11.7857 7.5C11.7857 8.0877 11.3069 8.5625 10.7143 8.5625H4.28571C3.69308 8.5625 3.21429 8.0877 3.21429 7.5C3.21429 6.9123 3.69308 6.4375 4.28571 6.4375H10.7143ZM6.42857 10.6875C6.42857 11.2752 5.94978 11.75 5.35714 11.75H4.28571C3.69308 11.75 3.21429 11.2752 3.21429 10.6875C3.21429 10.0998 3.69308 9.625 4.28571 9.625H5.35714C5.94978 9.625 6.42857 10.0998 6.42857 10.6875Z" fill="#791982"/>
</svg>
