<svg width="15" height="15" viewBox="0 0 15 15" fill="none" xmlns="http://www.w3.org/2000/svg">
<path d="M10.5625 4.25H9C9 3.56055 8.43945 3 7.75 3C7.06055 3 6.5 3.56055 6.5 4.25H4.9375C4.41992 4.25 4 4.66992 4 5.1875V12.0625C4 12.5801 4.41992 13 4.9375 13H10.5625C11.0801 13 11.5 12.5801 11.5 12.0625V5.1875C11.5 4.66992 11.0801 4.25 10.5625 4.25ZM5.875 11.2812C5.61523 11.2812 5.40625 11.0723 5.40625 10.8125C5.40625 10.5527 5.61523 10.3438 5.875 10.3438C6.13477 10.3438 6.34375 10.5527 6.34375 10.8125C6.34375 11.0723 6.13477 11.2812 5.875 11.2812ZM5.875 9.40625C5.61523 9.40625 5.40625 9.19727 5.40625 8.9375C5.40625 8.67773 5.61523 8.46875 5.875 8.46875C6.13477 8.46875 6.34375 8.67773 6.34375 8.9375C6.34375 9.19727 6.13477 9.40625 5.875 9.40625ZM5.875 7.53125C5.61523 7.53125 5.40625 7.32227 5.40625 7.0625C5.40625 6.80273 5.61523 6.59375 5.875 6.59375C6.13477 6.59375 6.34375 6.80273 6.34375 7.0625C6.34375 7.32227 6.13477 7.53125 5.875 7.53125ZM7.75 3.78125C8.00977 3.78125 8.21875 3.99023 8.21875 4.25C8.21875 4.50977 8.00977 4.71875 7.75 4.71875C7.49023 4.71875 7.28125 4.50977 7.28125 4.25C7.28125 3.99023 7.49023 3.78125 7.75 3.78125ZM10.25 10.9688C10.25 11.0547 10.1797 11.125 10.0938 11.125H7.28125C7.19531 11.125 7.125 11.0547 7.125 10.9688V10.6562C7.125 10.5703 7.19531 10.5 7.28125 10.5H10.0938C10.1797 10.5 10.25 10.5703 10.25 10.6562V10.9688ZM10.25 9.09375C10.25 9.17969 10.1797 9.25 10.0938 9.25H7.28125C7.19531 9.25 7.125 9.17969 7.125 9.09375V8.78125C7.125 8.69531 7.19531 8.625 7.28125 8.625H10.0938C10.1797 8.625 10.25 8.69531 10.25 8.78125V9.09375ZM10.25 7.21875C10.25 7.30469 10.1797 7.375 10.0938 7.375H7.28125C7.19531 7.375 7.125 7.30469 7.125 7.21875V6.90625C7.125 6.82031 7.19531 6.75 7.28125 6.75H10.0938C10.1797 6.75 10.25 6.82031 10.25 6.90625V7.21875Z" fill="#791982"/>
</svg>
