<svg width="18" height="17" viewBox="0 0 18 17" fill="none" xmlns="http://www.w3.org/2000/svg">
<path d="M0 2.03049C0 0.910547 0.896875 0 2 0H7V4.06098C7 4.62253 7.44688 5.07622 8 5.07622H12V6.30086C9.69063 6.96394 8 9.11816 8 11.6753C8 13.5503 8.90938 15.2064 10.3031 16.2217C10.2031 16.2376 10.1031 16.2439 10 16.2439H2C0.896875 16.2439 0 15.3334 0 14.2134V2.03049ZM12 4.06098H8V0L12 4.06098ZM18 11.6753C18 14.1976 15.9844 16.2439 13.5 16.2439C11.0156 16.2439 9 14.1976 9 11.6753C9 9.15306 11.0156 7.10671 13.5 7.10671C15.9844 7.10671 18 9.15306 18 11.6753ZM15.6031 10.3016C15.4094 10.1048 15.0906 10.1048 14.8969 10.3016L13 12.2273L12.1031 11.3168C11.9094 11.1201 11.5906 11.1201 11.3969 11.3168C11.2031 11.5135 11.2031 11.8371 11.3969 12.0338L12.6469 13.3029C12.8406 13.4996 13.1594 13.4996 13.3531 13.3029L15.6031 11.0186C15.7969 10.8219 15.7969 10.4983 15.6031 10.3016Z" fill="#791982"/>
</svg>
