<svg width="15" height="15" viewBox="0 0 15 15" fill="none" xmlns="http://www.w3.org/2000/svg">
<g clip-path="url(#clip0_241_1287)">
<path d="M11.0625 12.375H2.9375C2.41973 12.375 2 11.9553 2 11.4375V4.5625C2 4.04473 2.41973 3.625 2.9375 3.625H11.0625C11.5803 3.625 12 4.04473 12 4.5625V11.4375C12 11.9553 11.5803 12.375 11.0625 12.375ZM4.5 5.34375C4.06854 5.34375 3.71875 5.69354 3.71875 6.125C3.71875 6.55646 4.06854 6.90625 4.5 6.90625C4.93146 6.90625 5.28125 6.55646 5.28125 6.125C5.28125 5.69354 4.93146 5.34375 4.5 5.34375ZM4.5 7.21875C4.06854 7.21875 3.71875 7.56854 3.71875 8C3.71875 8.43146 4.06854 8.78125 4.5 8.78125C4.93146 8.78125 5.28125 8.43146 5.28125 8C5.28125 7.56854 4.93146 7.21875 4.5 7.21875ZM4.5 9.09375C4.06854 9.09375 3.71875 9.44354 3.71875 9.875C3.71875 10.3065 4.06854 10.6562 4.5 10.6562C4.93146 10.6562 5.28125 10.3065 5.28125 9.875C5.28125 9.44354 4.93146 9.09375 4.5 9.09375ZM10.125 6.4375V5.8125C10.125 5.68307 10.0201 5.57812 9.89062 5.57812H5.98438C5.85494 5.57812 5.75 5.68307 5.75 5.8125V6.4375C5.75 6.56693 5.85494 6.67188 5.98438 6.67188H9.89062C10.0201 6.67188 10.125 6.56693 10.125 6.4375ZM10.125 8.3125V7.6875C10.125 7.55807 10.0201 7.45312 9.89062 7.45312H5.98438C5.85494 7.45312 5.75 7.55807 5.75 7.6875V8.3125C5.75 8.44193 5.85494 8.54688 5.98438 8.54688H9.89062C10.0201 8.54688 10.125 8.44193 10.125 8.3125ZM10.125 10.1875V9.5625C10.125 9.43307 10.0201 9.32812 9.89062 9.32812H5.98438C5.85494 9.32812 5.75 9.43307 5.75 9.5625V10.1875C5.75 10.3169 5.85494 10.4219 5.98438 10.4219H9.89062C10.0201 10.4219 10.125 10.3169 10.125 10.1875Z" fill="#791982"/>
</g>
<defs>
<clipPath id="clip0_241_1287">
<rect x="3" y="3" width="10" height="10" fill="white"/>
</clipPath>
</defs>
</svg>
