<svg width="15" height="15" viewBox="0 0 15 15" fill="none" xmlns="http://www.w3.org/2000/svg">
<path d="M11.75 2.66667H9.66667C9.66667 1.7474 8.91927 1 8 1C7.08073 1 6.33333 1.7474 6.33333 2.66667H4.25C3.5599 2.66667 3 3.22656 3 3.91667V13.0833C3 13.7734 3.5599 14.3333 4.25 14.3333H11.75C12.4401 14.3333 13 13.7734 13 13.0833V3.91667C13 3.22656 12.4401 2.66667 11.75 2.66667ZM5.5 12.0417C5.15365 12.0417 4.875 11.763 4.875 11.4167C4.875 11.0703 5.15365 10.7917 5.5 10.7917C5.84635 10.7917 6.125 11.0703 6.125 11.4167C6.125 11.763 5.84635 12.0417 5.5 12.0417ZM5.5 9.54167C5.15365 9.54167 4.875 9.26302 4.875 8.91667C4.875 8.57031 5.15365 8.29167 5.5 8.29167C5.84635 8.29167 6.125 8.57031 6.125 8.91667C6.125 9.26302 5.84635 9.54167 5.5 9.54167ZM5.5 7.04167C5.15365 7.04167 4.875 6.76302 4.875 6.41667C4.875 6.07031 5.15365 5.79167 5.5 5.79167C5.84635 5.79167 6.125 6.07031 6.125 6.41667C6.125 6.76302 5.84635 7.04167 5.5 7.04167ZM8 2.04167C8.34635 2.04167 8.625 2.32031 8.625 2.66667C8.625 3.01302 8.34635 3.29167 8 3.29167C7.65365 3.29167 7.375 3.01302 7.375 2.66667C7.375 2.32031 7.65365 2.04167 8 2.04167ZM11.3333 11.625C11.3333 11.7396 11.2396 11.8333 11.125 11.8333H7.375C7.26042 11.8333 7.16667 11.7396 7.16667 11.625V11.2083C7.16667 11.0937 7.26042 11 7.375 11H11.125C11.2396 11 11.3333 11.0937 11.3333 11.2083V11.625ZM11.3333 9.125C11.3333 9.23958 11.2396 9.33333 11.125 9.33333H7.375C7.26042 9.33333 7.16667 9.23958 7.16667 9.125V8.70833C7.16667 8.59375 7.26042 8.5 7.375 8.5H11.125C11.2396 8.5 11.3333 8.59375 11.3333 8.70833V9.125ZM11.3333 6.625C11.3333 6.73958 11.2396 6.83333 11.125 6.83333H7.375C7.26042 6.83333 7.16667 6.73958 7.16667 6.625V6.20833C7.16667 6.09375 7.26042 6 7.375 6H11.125C11.2396 6 11.3333 6.09375 11.3333 6.20833V6.625Z" fill="#791982"/>
</svg>
