<svg width="15" height="15" viewBox="0 0 15 15" fill="none" xmlns="http://www.w3.org/2000/svg">
<g clip-path="url(#clip0_241_1298)">
<path d="M8 8.75C9.86328 8.75 11.375 7.23828 11.375 5.375C11.375 3.51172 9.86328 2 8 2C6.13672 2 4.625 3.51172 4.625 5.375C4.625 7.23828 6.13672 8.75 8 8.75ZM5.78047 9.5C3.69219 9.5 2 11.1922 2 13.2805C2 13.6789 2.32344 14 2.71953 14H13.2805C13.6789 14 14 13.6766 14 13.2805C14 11.1922 12.3078 9.5 10.2195 9.5H5.78047Z" fill="#787D86"/>
</g>
<defs>
<clipPath id="clip0_241_1298">
<rect width="12" height="12" fill="white" transform="translate(2 2)"/>
</clipPath>
</defs>
</svg>
