<svg width="15" height="15" viewBox="0 0 15 15" fill="none" xmlns="http://www.w3.org/2000/svg">
<path d="M3.75781 2.75781L2.96094 1.96094C2.60703 1.60703 2 1.85781 2 2.35703V4.9375C2 5.24922 2.25078 5.5 2.5625 5.5H5.14297C5.64453 5.5 5.89531 4.89297 5.54141 4.53906L4.81953 3.81719C5.63281 3.00391 6.75781 2.5 8 2.5C10.4844 2.5 12.5 4.51562 12.5 7C12.5 9.48438 10.4844 11.5 8 11.5C7.04375 11.5 6.15781 11.2023 5.42891 10.6938C5.08906 10.457 4.62266 10.5391 4.38359 10.8789C4.14453 11.2188 4.22891 11.6852 4.56875 11.9242C5.54375 12.6016 6.72734 13 8 13C11.3141 13 14 10.3141 14 7C14 3.68594 11.3141 1 8 1C6.34297 1 4.84297 1.67266 3.75781 2.75781ZM8 4C7.68828 4 7.4375 4.25078 7.4375 4.5625V7C7.4375 7.15 7.49609 7.29297 7.60156 7.39844L9.28906 9.08594C9.50937 9.30625 9.86562 9.30625 10.0836 9.08594C10.3016 8.86563 10.3039 8.50938 10.0836 8.29141L8.56016 6.76797V4.5625C8.56016 4.25078 8.30937 4 7.99766 4H8Z" fill="white"/>
</svg>
