<svg width="15" height="15" viewBox="0 0 15 15" fill="none" xmlns="http://www.w3.org/2000/svg">
<path d="M10.3333 8C10.3333 9.28958 9.28958 10.3333 8 10.3333C6.71042 10.3333 5.66667 9.28958 5.66667 8C5.66667 6.71042 6.71042 5.66667 8 5.66667C9.28958 5.66667 10.3333 6.71042 10.3333 8ZM7.66667 7.33333V8.66667H7.5C7.31667 8.66667 7.16667 8.81667 7.16667 9C7.16667 9.18333 7.31667 9.33333 7.5 9.33333H8.5C8.68333 9.33333 8.83333 9.18333 8.83333 9C8.83333 8.81667 8.68333 8.66667 8.5 8.66667H8.33333V7C8.33333 6.81667 8.18333 6.66667 8 6.66667H7.66667C7.48333 6.66667 7.33333 6.81667 7.33333 7C7.33333 7.18333 7.48333 7.33333 7.66667 7.33333ZM2 5.33333C2 4.59688 2.59688 4 3.33333 4H12.6667C13.4021 4 14 4.59688 14 5.33333V10.6667C14 11.4021 13.4021 12 12.6667 12H3.33333C2.59688 12 2 11.4021 2 10.6667V5.33333ZM3 6.33333V9.66667C3.73646 9.66667 4.33333 10.2646 4.33333 11H11.6667C11.6667 10.2646 12.2646 9.66667 13 9.66667V6.33333C12.2646 6.33333 11.6667 5.73542 11.6667 5H4.33333C4.33333 5.73542 3.73646 6.33333 3 6.33333Z" fill="#787D86"/>
</svg>
