<svg width="15" height="15" viewBox="0 0 15 15" fill="none" xmlns="http://www.w3.org/2000/svg">
<path d="M5.42857 1C5.90268 1 6.28571 1.38304 6.28571 1.85714V2.71429H9.71429V1.85714C9.71429 1.38304 10.0973 1 10.5714 1C11.0455 1 11.4286 1.38304 11.4286 1.85714V2.71429H12.7143C13.4241 2.71429 14 3.29018 14 4V5.28571H2V4C2 3.29018 2.57589 2.71429 3.28571 2.71429H4.57143V1.85714C4.57143 1.38304 4.95446 1 5.42857 1ZM2 6.14286H14V13.4286C14 14.1384 13.4241 14.7143 12.7143 14.7143H3.28571C2.57589 14.7143 2 14.1384 2 13.4286V6.14286ZM3.71429 8.28571V9.14286C3.71429 9.37857 3.90714 9.57143 4.14286 9.57143H5C5.23571 9.57143 5.42857 9.37857 5.42857 9.14286V8.28571C5.42857 8.05 5.23571 7.85714 5 7.85714H4.14286C3.90714 7.85714 3.71429 8.05 3.71429 8.28571ZM7.14286 8.28571V9.14286C7.14286 9.37857 7.33571 9.57143 7.57143 9.57143H8.42857C8.66429 9.57143 8.85714 9.37857 8.85714 9.14286V8.28571C8.85714 8.05 8.66429 7.85714 8.42857 7.85714H7.57143C7.33571 7.85714 7.14286 8.05 7.14286 8.28571ZM11 7.85714C10.7643 7.85714 10.5714 8.05 10.5714 8.28571V9.14286C10.5714 9.37857 10.7643 9.57143 11 9.57143H11.8571C12.0929 9.57143 12.2857 9.37857 12.2857 9.14286V8.28571C12.2857 8.05 12.0929 7.85714 11.8571 7.85714H11ZM3.71429 11.7143V12.5714C3.71429 12.8071 3.90714 13 4.14286 13H5C5.23571 13 5.42857 12.8071 5.42857 12.5714V11.7143C5.42857 11.4786 5.23571 11.2857 5 11.2857H4.14286C3.90714 11.2857 3.71429 11.4786 3.71429 11.7143ZM7.57143 11.2857C7.33571 11.2857 7.14286 11.4786 7.14286 11.7143V12.5714C7.14286 12.8071 7.33571 13 7.57143 13H8.42857C8.66429 13 8.85714 12.8071 8.85714 12.5714V11.7143C8.85714 11.4786 8.66429 11.2857 8.42857 11.2857H7.57143ZM10.5714 11.7143V12.5714C10.5714 12.8071 10.7643 13 11 13H11.8571C12.0929 13 12.2857 12.8071 12.2857 12.5714V11.7143C12.2857 11.4786 12.0929 11.2857 11.8571 11.2857H11C10.7643 11.2857 10.5714 11.4786 10.5714 11.7143Z" fill="#787D86"/>
</svg>
