<svg width="15" height="15" viewBox="0 0 15 15" fill="none" xmlns="http://www.w3.org/2000/svg">
<path d="M10.8125 3H3.9375C3.4375 3 3 3.4375 3 3.9375V12.0625C3 12.5625 3.4375 13 3.9375 13H10.8125C11.3125 13 11.75 12.5625 11.75 12.0625V3.9375C11.75 3.4375 11.3125 3 10.8125 3ZM5.5 11.5C5.5 11.625 5.375 11.75 5.25 11.75H4.5C4.375 11.75 4.25 11.625 4.25 11.5V10.75C4.25 10.625 4.375 10.5 4.5 10.5H5.25C5.375 10.5 5.5 10.625 5.5 10.75V11.5V11.5ZM5.5 9C5.5 9.125 5.375 9.25 5.25 9.25H4.5C4.375 9.25 4.25 9.125 4.25 9V8.25C4.25 8.125 4.375 8 4.5 8H5.25C5.375 8 5.5 8.125 5.5 8.25V9V9ZM8 11.5C8 11.625 7.875 11.75 7.75 11.75H7C6.875 11.75 6.75 11.625 6.75 11.5V10.75C6.75 10.625 6.875 10.5 7 10.5H7.75C7.875 10.5 8 10.625 8 10.75V11.5ZM8 9C8 9.125 7.875 9.25 7.75 9.25H7C6.875 9.25 6.75 9.125 6.75 9V8.25C6.75 8.125 6.875 8 7 8H7.75C7.875 8 8 8.125 8 8.25V9ZM10.5 11.5C10.5 11.625 10.375 11.75 10.25 11.75H9.5C9.375 11.75 9.25 11.625 9.25 11.5V8.25C9.25 8.125 9.375 8 9.5 8H10.25C10.375 8 10.5 8.125 10.5 8.25V11.5V11.5ZM10.5 6.5C10.5 6.625 10.375 6.75 10.25 6.75H4.5C4.375 6.75 4.25 6.625 4.25 6.5V4.5C4.25 4.375 4.375 4.25 4.5 4.25H10.25C10.375 4.25 10.5 4.375 10.5 4.5V6.5Z" fill="#791982"/>
</svg>
