<?xml version="1.0" standalone="no"?>
<!DOCTYPE svg PUBLIC "-//W3C//DTD SVG 20010904//EN"
 "http://www.w3.org/TR/2001/REC-SVG-20010904/DTD/svg10.dtd">
<svg version="1.0" xmlns="http://www.w3.org/2000/svg"
 width="512.000000pt" height="512.000000pt" viewBox="0 0 512.000000 512.000000"
 preserveAspectRatio="xMidYMid meet">

<g transform="translate(0.000000,512.000000) scale(0.100000,-0.100000)"
fill="#000000" stroke="none">
<path d="M2400 5114 c-651 -56 -1172 -287 -1617 -718 -220 -212 -379 -430
-513 -701 -129 -261 -197 -477 -241 -766 -31 -205 -31 -533 0 -738 86 -565
323 -1035 725 -1437 411 -410 894 -650 1469 -729 66 -9 122 -14 125 -11 3 3
-3 6 -14 6 -41 0 -147 61 -199 115 -124 126 -163 328 -95 481 l19 45 -25 9
c-14 6 -30 10 -35 10 -24 0 -213 77 -314 127 -556 279 -940 791 -1057 1413
-30 158 -32 502 -4 660 112 629 501 1154 1061 1433 279 139 567 207 880 207
979 0 1812 -733 1940 -1706 27 -210 16 -482 -29 -679 -22 -96 -74 -263 -84
-269 -5 -3 -107 169 -227 382 -120 213 -236 411 -257 440 -65 88 -173 147
-305 167 l-43 7 0 -150 0 -150 35 -6 c19 -4 46 -17 60 -29 14 -12 280 -472
591 -1022 606 -1069 597 -1052 561 -1121 -8 -16 -27 -40 -42 -54 l-27 -25
-589 -3 -589 -2 0 -150 0 -150 574 0 c342 0 595 4 627 10 217 40 377 257 355
478 -9 90 -25 124 -205 441 -89 156 -161 288 -161 292 0 5 22 48 50 97 143
253 246 560 297 889 23 151 23 555 0 706 -122 794 -551 1438 -1228 1848 -274
165 -610 285 -939 334 -101 15 -436 27 -530 19z"/>
<path d="M2505 3606 c-37 -17 -70 -52 -84 -89 -7 -17 -11 -126 -11 -280 l0
-252 -58 -30 c-73 -38 -149 -114 -187 -187 l-30 -57 -267 -3 c-251 -3 -268 -4
-294 -24 -50 -37 -69 -72 -69 -124 0 -52 19 -87 69 -124 26 -20 43 -21 294
-24 l267 -3 30 -57 c63 -122 188 -210 332 -234 313 -52 578 245 498 557 -31
118 -128 237 -235 287 l-49 23 -1 258 c0 285 -4 307 -62 349 -37 26 -103 33
-143 14z m133 -916 c45 -28 72 -76 72 -130 0 -54 -27 -102 -72 -131 -42 -26
-126 -22 -166 8 -62 45 -80 150 -35 211 43 60 139 80 201 42z"/>
<path d="M3560 1581 l0 -391 24 0 c34 0 88 40 109 80 16 31 17 63 15 317 -3
267 -4 283 -24 309 -26 36 -62 61 -96 70 l-28 6 0 -391z"/>
<path d="M3560 751 l0 -149 38 10 c129 35 150 212 32 273 -16 8 -38 15 -50 15
-19 0 -20 -5 -20 -149z"/>
</g>
</svg>
